<svg xmlns="http://www.w3.org/2000/svg" xmlns:xlink="http://www.w3.org/1999/xlink" width="1080" zoomAndPan="magnify" viewBox="0 0 810 1012.49997" height="1350" preserveAspectRatio="xMidYMid meet" version="1.0"><defs><clipPath id="4b7f729a6b"><path d="M 139.960938 240.960938 L 669.949219 240.960938 L 669.949219 770.949219 L 139.960938 770.949219 Z M 139.960938 240.960938 " clip-rule="nonzero"/></clipPath><clipPath id="87e478e041"><path d="M 669.949219 505.957031 C 669.949219 510.292969 669.84375 514.625 669.628906 518.957031 C 669.417969 523.289062 669.097656 527.613281 668.671875 531.929688 C 668.25 536.246094 667.71875 540.546875 667.082031 544.839844 C 666.445312 549.128906 665.703125 553.398438 664.859375 557.652344 C 664.011719 561.90625 663.0625 566.136719 662.007812 570.34375 C 660.953125 574.550781 659.796875 578.730469 658.539062 582.878906 C 657.28125 587.03125 655.921875 591.144531 654.460938 595.230469 C 653 599.3125 651.4375 603.359375 649.777344 607.363281 C 648.117188 611.371094 646.363281 615.335938 644.507812 619.253906 C 642.652344 623.175781 640.703125 627.046875 638.660156 630.875 C 636.613281 634.699219 634.476562 638.46875 632.25 642.191406 C 630.019531 645.910156 627.699219 649.574219 625.289062 653.179688 C 622.878906 656.785156 620.382812 660.328125 617.800781 663.8125 C 615.21875 667.296875 612.550781 670.714844 609.796875 674.066406 C 607.046875 677.417969 604.214844 680.703125 601.304688 683.914062 C 598.390625 687.128906 595.402344 690.269531 592.335938 693.335938 C 589.269531 696.402344 586.128906 699.390625 582.914062 702.304688 C 579.703125 705.214844 576.417969 708.046875 573.066406 710.800781 C 569.714844 713.550781 566.296875 716.21875 562.8125 718.800781 C 559.328125 721.382812 555.785156 723.878906 552.179688 726.289062 C 548.574219 728.699219 544.910156 731.019531 541.191406 733.25 C 537.46875 735.476562 533.699219 737.617188 529.871094 739.660156 C 526.046875 741.703125 522.175781 743.652344 518.253906 745.507812 C 514.335938 747.363281 510.371094 749.117188 506.363281 750.777344 C 502.359375 752.4375 498.3125 754 494.230469 755.460938 C 490.144531 756.921875 486.03125 758.28125 481.878906 759.539062 C 477.730469 760.796875 473.550781 761.953125 469.34375 763.007812 C 465.136719 764.0625 460.90625 765.011719 456.652344 765.859375 C 452.398438 766.703125 448.128906 767.445312 443.839844 768.082031 C 439.546875 768.71875 435.246094 769.25 430.929688 769.675781 C 426.613281 770.097656 422.289062 770.417969 417.957031 770.628906 C 413.625 770.84375 409.292969 770.949219 404.957031 770.949219 C 400.617188 770.949219 396.285156 770.84375 391.953125 770.628906 C 387.621094 770.417969 383.296875 770.097656 378.980469 769.675781 C 374.664062 769.25 370.363281 768.71875 366.074219 768.082031 C 361.78125 767.445312 357.511719 766.703125 353.257812 765.859375 C 349.003906 765.011719 344.773438 764.0625 340.566406 763.007812 C 336.359375 761.953125 332.183594 760.796875 328.03125 759.539062 C 323.882812 758.28125 319.765625 756.921875 315.683594 755.460938 C 311.597656 754 307.554688 752.4375 303.546875 750.777344 C 299.539062 749.117188 295.578125 747.363281 291.65625 745.507812 C 287.734375 743.652344 283.863281 741.703125 280.039062 739.660156 C 276.214844 737.617188 272.441406 735.476562 268.722656 733.25 C 265 731.019531 261.339844 728.699219 257.734375 726.289062 C 254.125 723.878906 250.582031 721.382812 247.097656 718.800781 C 243.617188 716.21875 240.199219 713.550781 236.84375 710.800781 C 233.492188 708.046875 230.210938 705.214844 226.996094 702.304688 C 223.78125 699.390625 220.644531 696.402344 217.578125 693.335938 C 214.511719 690.269531 211.519531 687.128906 208.609375 683.914062 C 205.695312 680.703125 202.863281 677.417969 200.113281 674.066406 C 197.359375 670.714844 194.695312 667.296875 192.109375 663.8125 C 189.527344 660.328125 187.03125 656.785156 184.621094 653.179688 C 182.210938 649.574219 179.890625 645.910156 177.664062 642.191406 C 175.433594 638.46875 173.296875 634.699219 171.25 630.875 C 169.207031 627.046875 167.257812 623.175781 165.402344 619.253906 C 163.550781 615.335938 161.792969 611.371094 160.132812 607.363281 C 158.472656 603.359375 156.914062 599.3125 155.453125 595.230469 C 153.992188 591.144531 152.632812 587.03125 151.371094 582.878906 C 150.113281 578.730469 148.957031 574.550781 147.902344 570.34375 C 146.847656 566.136719 145.898438 561.90625 145.054688 557.652344 C 144.207031 553.398438 143.464844 549.128906 142.828125 544.839844 C 142.191406 540.546875 141.664062 536.246094 141.238281 531.929688 C 140.8125 527.613281 140.492188 523.289062 140.28125 518.957031 C 140.066406 514.625 139.960938 510.292969 139.960938 505.957031 C 139.960938 501.617188 140.066406 497.285156 140.28125 492.953125 C 140.492188 488.621094 140.8125 484.296875 141.238281 479.980469 C 141.664062 475.664062 142.191406 471.363281 142.828125 467.074219 C 143.464844 462.78125 144.207031 458.511719 145.054688 454.257812 C 145.898438 450.003906 146.847656 445.773438 147.902344 441.566406 C 148.957031 437.359375 150.113281 433.183594 151.371094 429.03125 C 152.632812 424.882812 153.992188 420.765625 155.453125 416.683594 C 156.914062 412.597656 158.472656 408.554688 160.132812 404.546875 C 161.792969 400.539062 163.550781 396.578125 165.402344 392.65625 C 167.257812 388.734375 169.207031 384.863281 171.25 381.039062 C 173.296875 377.214844 175.433594 373.441406 177.664062 369.722656 C 179.890625 366 182.210938 362.339844 184.621094 358.734375 C 187.03125 355.125 189.527344 351.582031 192.109375 348.097656 C 194.695312 344.617188 197.359375 341.199219 200.113281 337.84375 C 202.863281 334.492188 205.695312 331.210938 208.609375 327.996094 C 211.519531 324.78125 214.511719 321.644531 217.578125 318.578125 C 220.644531 315.511719 223.78125 312.519531 226.996094 309.609375 C 230.210938 306.695312 233.492188 303.863281 236.84375 301.113281 C 240.199219 298.359375 243.617188 295.695312 247.097656 293.109375 C 250.582031 290.527344 254.125 288.03125 257.734375 285.621094 C 261.339844 283.210938 265 280.890625 268.722656 278.664062 C 272.441406 276.433594 276.214844 274.296875 280.039062 272.25 C 283.863281 270.207031 287.734375 268.257812 291.65625 266.402344 C 295.578125 264.550781 299.539062 262.792969 303.546875 261.132812 C 307.554688 259.472656 311.597656 257.914062 315.683594 256.453125 C 319.765625 254.992188 323.882812 253.632812 328.03125 252.371094 C 332.183594 251.113281 336.359375 249.957031 340.566406 248.902344 C 344.773438 247.847656 349.003906 246.898438 353.257812 246.054688 C 357.511719 245.207031 361.78125 244.464844 366.074219 243.828125 C 370.363281 243.195312 374.664062 242.664062 378.980469 242.238281 C 383.296875 241.8125 387.621094 241.492188 391.953125 241.28125 C 396.285156 241.066406 400.617188 240.960938 404.957031 240.960938 C 409.292969 240.960938 413.625 241.066406 417.957031 241.28125 C 422.289062 241.492188 426.613281 241.8125 430.929688 242.238281 C 435.246094 242.664062 439.546875 243.195312 443.839844 243.828125 C 448.128906 244.464844 452.398438 245.207031 456.652344 246.054688 C 460.90625 246.898438 465.136719 247.847656 469.34375 248.902344 C 473.550781 249.957031 477.730469 251.113281 481.878906 252.371094 C 486.03125 253.632812 490.144531 254.992188 494.230469 256.453125 C 498.3125 257.914062 502.359375 259.472656 506.363281 261.132812 C 510.371094 262.792969 514.335938 264.550781 518.253906 266.402344 C 522.175781 268.257812 526.046875 270.207031 529.871094 272.25 C 533.699219 274.296875 537.46875 276.433594 541.191406 278.664062 C 544.910156 280.890625 548.574219 283.210938 552.179688 285.621094 C 555.785156 288.03125 559.328125 290.527344 562.8125 293.109375 C 566.296875 295.695312 569.714844 298.359375 573.066406 301.113281 C 576.417969 303.863281 579.703125 306.695312 582.914062 309.609375 C 586.128906 312.519531 589.269531 315.511719 592.335938 318.578125 C 595.402344 321.644531 598.390625 324.78125 601.304688 327.996094 C 604.214844 331.210938 607.046875 334.492188 609.796875 337.84375 C 612.550781 341.199219 615.21875 344.617188 617.800781 348.097656 C 620.382812 351.582031 622.878906 355.125 625.289062 358.734375 C 627.699219 362.339844 630.019531 366 632.25 369.722656 C 634.476562 373.441406 636.613281 377.214844 638.660156 381.039062 C 640.703125 384.863281 642.652344 388.734375 644.507812 392.65625 C 646.363281 396.578125 648.117188 400.539062 649.777344 404.546875 C 651.4375 408.554688 653 412.597656 654.460938 416.683594 C 655.921875 420.765625 657.28125 424.882812 658.539062 429.03125 C 659.796875 433.183594 660.953125 437.359375 662.007812 441.566406 C 663.0625 445.773438 664.011719 450.003906 664.859375 454.257812 C 665.703125 458.511719 666.445312 462.78125 667.082031 467.074219 C 667.71875 471.363281 668.25 475.664062 668.671875 479.980469 C 669.097656 484.296875 669.417969 488.621094 669.628906 492.953125 C 669.84375 497.285156 669.949219 501.617188 669.949219 505.957031 Z M 669.949219 505.957031 " clip-rule="nonzero"/></clipPath><linearGradient x1="-0.00000119054" gradientTransform="matrix(0.525782, 0, 0, 0.525782, 139.961457, 240.961569)" y1="504" x2="1007.999912" gradientUnits="userSpaceOnUse" y2="504" id="45167167d0"><stop stop-opacity="1" stop-color="rgb(26.269531%, 80.778503%, 63.529968%)" offset="0"/><stop stop-opacity="1" stop-color="rgb(26.202393%, 80.601501%, 63.520813%)" offset="0.0078125"/><stop stop-opacity="1" stop-color="rgb(26.071167%, 80.245972%, 63.505554%)" offset="0.015625"/><stop stop-opacity="1" stop-color="rgb(25.939941%, 79.890442%, 63.490295%)" offset="0.0234375"/><stop stop-opacity="1" stop-color="rgb(25.808716%, 79.534912%, 63.475037%)" offset="0.03125"/><stop stop-opacity="1" stop-color="rgb(25.675964%, 79.179382%, 63.459778%)" offset="0.0390625"/><stop stop-opacity="1" stop-color="rgb(25.544739%, 78.823853%, 63.444519%)" offset="0.046875"/><stop stop-opacity="1" stop-color="rgb(25.413513%, 78.468323%, 63.42926%)" offset="0.0546875"/><stop stop-opacity="1" stop-color="rgb(25.280762%, 78.112793%, 63.414001%)" offset="0.0625"/><stop stop-opacity="1" stop-color="rgb(25.149536%, 77.757263%, 63.398743%)" offset="0.0703125"/><stop stop-opacity="1" stop-color="rgb(25.018311%, 77.401733%, 63.383484%)" offset="0.078125"/><stop stop-opacity="1" stop-color="rgb(24.885559%, 77.046204%, 63.368225%)" offset="0.0859375"/><stop stop-opacity="1" stop-color="rgb(24.754333%, 76.6922%, 63.352966%)" offset="0.09375"/><stop stop-opacity="1" stop-color="rgb(24.623108%, 76.33667%, 63.337708%)" offset="0.101563"/><stop stop-opacity="1" stop-color="rgb(24.490356%, 75.98114%, 63.322449%)" offset="0.109375"/><stop stop-opacity="1" stop-color="rgb(24.359131%, 75.62561%, 63.30719%)" offset="0.117188"/><stop stop-opacity="1" stop-color="rgb(24.227905%, 75.270081%, 63.291931%)" offset="0.125"/><stop stop-opacity="1" stop-color="rgb(24.095154%, 74.914551%, 63.276672%)" offset="0.132812"/><stop stop-opacity="1" stop-color="rgb(23.963928%, 74.559021%, 63.261414%)" offset="0.140625"/><stop stop-opacity="1" stop-color="rgb(23.832703%, 74.203491%, 63.246155%)" offset="0.148438"/><stop stop-opacity="1" stop-color="rgb(23.699951%, 73.847961%, 63.230896%)" offset="0.15625"/><stop stop-opacity="1" stop-color="rgb(23.568726%, 73.492432%, 63.215637%)" offset="0.164062"/><stop stop-opacity="1" stop-color="rgb(23.4375%, 73.136902%, 63.200378%)" offset="0.171875"/><stop stop-opacity="1" stop-color="rgb(23.304749%, 72.782898%, 63.18512%)" offset="0.179688"/><stop stop-opacity="1" stop-color="rgb(23.173523%, 72.427368%, 63.169861%)" offset="0.1875"/><stop stop-opacity="1" stop-color="rgb(23.042297%, 72.071838%, 63.154602%)" offset="0.195312"/><stop stop-opacity="1" stop-color="rgb(22.909546%, 71.716309%, 63.139343%)" offset="0.203125"/><stop stop-opacity="1" stop-color="rgb(22.77832%, 71.360779%, 63.124084%)" offset="0.210938"/><stop stop-opacity="1" stop-color="rgb(22.647095%, 71.005249%, 63.108826%)" offset="0.21875"/><stop stop-opacity="1" stop-color="rgb(22.514343%, 70.649719%, 63.093567%)" offset="0.226562"/><stop stop-opacity="1" stop-color="rgb(22.383118%, 70.294189%, 63.076782%)" offset="0.234375"/><stop stop-opacity="1" stop-color="rgb(22.251892%, 69.93866%, 63.061523%)" offset="0.242188"/><stop stop-opacity="1" stop-color="rgb(22.119141%, 69.58313%, 63.046265%)" offset="0.25"/><stop stop-opacity="1" stop-color="rgb(21.987915%, 69.2276%, 63.031006%)" offset="0.257812"/><stop stop-opacity="1" stop-color="rgb(21.856689%, 68.873596%, 63.015747%)" offset="0.265625"/><stop stop-opacity="1" stop-color="rgb(21.723938%, 68.518066%, 63.000488%)" offset="0.273438"/><stop stop-opacity="1" stop-color="rgb(21.592712%, 68.162537%, 62.985229%)" offset="0.28125"/><stop stop-opacity="1" stop-color="rgb(21.461487%, 67.807007%, 62.969971%)" offset="0.289062"/><stop stop-opacity="1" stop-color="rgb(21.330261%, 67.451477%, 62.954712%)" offset="0.296875"/><stop stop-opacity="1" stop-color="rgb(21.19751%, 67.095947%, 62.939453%)" offset="0.304688"/><stop stop-opacity="1" stop-color="rgb(21.066284%, 66.740417%, 62.924194%)" offset="0.3125"/><stop stop-opacity="1" stop-color="rgb(20.935059%, 66.384888%, 62.908936%)" offset="0.320312"/><stop stop-opacity="1" stop-color="rgb(20.802307%, 66.029358%, 62.893677%)" offset="0.328125"/><stop stop-opacity="1" stop-color="rgb(20.671082%, 65.673828%, 62.878418%)" offset="0.335938"/><stop stop-opacity="1" stop-color="rgb(20.539856%, 65.318298%, 62.863159%)" offset="0.34375"/><stop stop-opacity="1" stop-color="rgb(20.407104%, 64.964294%, 62.8479%)" offset="0.351562"/><stop stop-opacity="1" stop-color="rgb(20.275879%, 64.608765%, 62.832642%)" offset="0.359375"/><stop stop-opacity="1" stop-color="rgb(20.144653%, 64.253235%, 62.817383%)" offset="0.367188"/><stop stop-opacity="1" stop-color="rgb(20.011902%, 63.897705%, 62.802124%)" offset="0.375"/><stop stop-opacity="1" stop-color="rgb(19.880676%, 63.542175%, 62.786865%)" offset="0.382813"/><stop stop-opacity="1" stop-color="rgb(19.749451%, 63.186646%, 62.771606%)" offset="0.390625"/><stop stop-opacity="1" stop-color="rgb(19.616699%, 62.831116%, 62.756348%)" offset="0.398438"/><stop stop-opacity="1" stop-color="rgb(19.485474%, 62.475586%, 62.741089%)" offset="0.40625"/><stop stop-opacity="1" stop-color="rgb(19.354248%, 62.120056%, 62.72583%)" offset="0.414063"/><stop stop-opacity="1" stop-color="rgb(19.221497%, 61.764526%, 62.710571%)" offset="0.421875"/><stop stop-opacity="1" stop-color="rgb(19.090271%, 61.408997%, 62.695312%)" offset="0.429688"/><stop stop-opacity="1" stop-color="rgb(18.959045%, 61.054993%, 62.680054%)" offset="0.4375"/><stop stop-opacity="1" stop-color="rgb(18.826294%, 60.699463%, 62.664795%)" offset="0.445313"/><stop stop-opacity="1" stop-color="rgb(18.695068%, 60.343933%, 62.64801%)" offset="0.453125"/><stop stop-opacity="1" stop-color="rgb(18.563843%, 59.988403%, 62.632751%)" offset="0.460938"/><stop stop-opacity="1" stop-color="rgb(18.431091%, 59.632874%, 62.617493%)" offset="0.46875"/><stop stop-opacity="1" stop-color="rgb(18.299866%, 59.277344%, 62.602234%)" offset="0.476563"/><stop stop-opacity="1" stop-color="rgb(18.16864%, 58.921814%, 62.586975%)" offset="0.484375"/><stop stop-opacity="1" stop-color="rgb(18.035889%, 58.566284%, 62.571716%)" offset="0.492188"/><stop stop-opacity="1" stop-color="rgb(17.904663%, 58.210754%, 62.556458%)" offset="0.5"/><stop stop-opacity="1" stop-color="rgb(17.773438%, 57.855225%, 62.541199%)" offset="0.507812"/><stop stop-opacity="1" stop-color="rgb(17.640686%, 57.501221%, 62.52594%)" offset="0.515625"/><stop stop-opacity="1" stop-color="rgb(17.50946%, 57.145691%, 62.510681%)" offset="0.523438"/><stop stop-opacity="1" stop-color="rgb(17.378235%, 56.790161%, 62.495422%)" offset="0.53125"/><stop stop-opacity="1" stop-color="rgb(17.247009%, 56.434631%, 62.480164%)" offset="0.539062"/><stop stop-opacity="1" stop-color="rgb(17.114258%, 56.079102%, 62.464905%)" offset="0.546875"/><stop stop-opacity="1" stop-color="rgb(16.983032%, 55.723572%, 62.449646%)" offset="0.554688"/><stop stop-opacity="1" stop-color="rgb(16.851807%, 55.368042%, 62.434387%)" offset="0.5625"/><stop stop-opacity="1" stop-color="rgb(16.719055%, 55.012512%, 62.419128%)" offset="0.570312"/><stop stop-opacity="1" stop-color="rgb(16.58783%, 54.656982%, 62.40387%)" offset="0.578125"/><stop stop-opacity="1" stop-color="rgb(16.456604%, 54.301453%, 62.388611%)" offset="0.585938"/><stop stop-opacity="1" stop-color="rgb(16.323853%, 53.945923%, 62.373352%)" offset="0.59375"/><stop stop-opacity="1" stop-color="rgb(16.192627%, 53.591919%, 62.358093%)" offset="0.601562"/><stop stop-opacity="1" stop-color="rgb(16.061401%, 53.236389%, 62.342834%)" offset="0.609375"/><stop stop-opacity="1" stop-color="rgb(15.92865%, 52.880859%, 62.327576%)" offset="0.617187"/><stop stop-opacity="1" stop-color="rgb(15.797424%, 52.52533%, 62.312317%)" offset="0.625"/><stop stop-opacity="1" stop-color="rgb(15.666199%, 52.1698%, 62.297058%)" offset="0.632812"/><stop stop-opacity="1" stop-color="rgb(15.533447%, 51.81427%, 62.281799%)" offset="0.640625"/><stop stop-opacity="1" stop-color="rgb(15.402222%, 51.45874%, 62.266541%)" offset="0.648438"/><stop stop-opacity="1" stop-color="rgb(15.270996%, 51.10321%, 62.251282%)" offset="0.65625"/><stop stop-opacity="1" stop-color="rgb(15.138245%, 50.747681%, 62.236023%)" offset="0.664062"/><stop stop-opacity="1" stop-color="rgb(15.007019%, 50.392151%, 62.219238%)" offset="0.671875"/><stop stop-opacity="1" stop-color="rgb(14.875793%, 50.036621%, 62.203979%)" offset="0.679688"/><stop stop-opacity="1" stop-color="rgb(14.743042%, 49.682617%, 62.188721%)" offset="0.6875"/><stop stop-opacity="1" stop-color="rgb(14.611816%, 49.327087%, 62.173462%)" offset="0.695312"/><stop stop-opacity="1" stop-color="rgb(14.480591%, 48.971558%, 62.158203%)" offset="0.703125"/><stop stop-opacity="1" stop-color="rgb(14.347839%, 48.616028%, 62.142944%)" offset="0.710938"/><stop stop-opacity="1" stop-color="rgb(14.216614%, 48.260498%, 62.127686%)" offset="0.71875"/><stop stop-opacity="1" stop-color="rgb(14.085388%, 47.904968%, 62.112427%)" offset="0.726562"/><stop stop-opacity="1" stop-color="rgb(13.952637%, 47.549438%, 62.097168%)" offset="0.734375"/><stop stop-opacity="1" stop-color="rgb(13.821411%, 47.193909%, 62.081909%)" offset="0.742187"/><stop stop-opacity="1" stop-color="rgb(13.690186%, 46.838379%, 62.06665%)" offset="0.75"/><stop stop-opacity="1" stop-color="rgb(13.557434%, 46.482849%, 62.051392%)" offset="0.757812"/><stop stop-opacity="1" stop-color="rgb(13.426208%, 46.127319%, 62.036133%)" offset="0.765625"/><stop stop-opacity="1" stop-color="rgb(13.294983%, 45.773315%, 62.020874%)" offset="0.773438"/><stop stop-opacity="1" stop-color="rgb(13.162231%, 45.417786%, 62.005615%)" offset="0.78125"/><stop stop-opacity="1" stop-color="rgb(13.031006%, 45.062256%, 61.990356%)" offset="0.789062"/><stop stop-opacity="1" stop-color="rgb(12.89978%, 44.706726%, 61.975098%)" offset="0.796875"/><stop stop-opacity="1" stop-color="rgb(12.768555%, 44.351196%, 61.959839%)" offset="0.804688"/><stop stop-opacity="1" stop-color="rgb(12.635803%, 43.995667%, 61.94458%)" offset="0.8125"/><stop stop-opacity="1" stop-color="rgb(12.504578%, 43.640137%, 61.929321%)" offset="0.820312"/><stop stop-opacity="1" stop-color="rgb(12.373352%, 43.284607%, 61.914062%)" offset="0.828125"/><stop stop-opacity="1" stop-color="rgb(12.240601%, 42.929077%, 61.898804%)" offset="0.835938"/><stop stop-opacity="1" stop-color="rgb(12.109375%, 42.573547%, 61.883545%)" offset="0.84375"/><stop stop-opacity="1" stop-color="rgb(11.978149%, 42.218018%, 61.868286%)" offset="0.851562"/><stop stop-opacity="1" stop-color="rgb(11.845398%, 41.864014%, 61.853027%)" offset="0.859375"/><stop stop-opacity="1" stop-color="rgb(11.714172%, 41.508484%, 61.837769%)" offset="0.867187"/><stop stop-opacity="1" stop-color="rgb(11.582947%, 41.152954%, 61.82251%)" offset="0.875"/><stop stop-opacity="1" stop-color="rgb(11.450195%, 40.797424%, 61.807251%)" offset="0.882812"/><stop stop-opacity="1" stop-color="rgb(11.31897%, 40.441895%, 61.791992%)" offset="0.890625"/><stop stop-opacity="1" stop-color="rgb(11.187744%, 40.086365%, 61.775208%)" offset="0.898438"/><stop stop-opacity="1" stop-color="rgb(11.054993%, 39.730835%, 61.759949%)" offset="0.90625"/><stop stop-opacity="1" stop-color="rgb(10.923767%, 39.375305%, 61.74469%)" offset="0.914062"/><stop stop-opacity="1" stop-color="rgb(10.792542%, 39.019775%, 61.729431%)" offset="0.921875"/><stop stop-opacity="1" stop-color="rgb(10.65979%, 38.664246%, 61.714172%)" offset="0.929688"/><stop stop-opacity="1" stop-color="rgb(10.528564%, 38.308716%, 61.698914%)" offset="0.9375"/><stop stop-opacity="1" stop-color="rgb(10.397339%, 37.954712%, 61.683655%)" offset="0.945312"/><stop stop-opacity="1" stop-color="rgb(10.264587%, 37.599182%, 61.668396%)" offset="0.953125"/><stop stop-opacity="1" stop-color="rgb(10.133362%, 37.243652%, 61.653137%)" offset="0.960938"/><stop stop-opacity="1" stop-color="rgb(10.002136%, 36.888123%, 61.637878%)" offset="0.96875"/><stop stop-opacity="1" stop-color="rgb(9.869385%, 36.532593%, 61.62262%)" offset="0.976562"/><stop stop-opacity="1" stop-color="rgb(9.738159%, 36.177063%, 61.607361%)" offset="0.984375"/><stop stop-opacity="1" stop-color="rgb(9.606934%, 35.821533%, 61.592102%)" offset="0.992188"/><stop stop-opacity="1" stop-color="rgb(9.474182%, 35.466003%, 61.576843%)" offset="1"/></linearGradient><clipPath id="f133818d25"><path d="M 139.960938 460 L 669.949219 460 L 669.949219 770.949219 L 139.960938 770.949219 Z M 139.960938 460 " clip-rule="nonzero"/></clipPath><clipPath id="2a2b32cc7d"><path d="M 669.949219 505.957031 C 669.949219 652.332031 551.332031 770.949219 404.957031 770.949219 C 258.578125 770.949219 139.960938 652.332031 139.960938 505.957031 C 139.960938 359.578125 258.578125 613.214844 404.957031 613.214844 C 551.332031 613.214844 669.949219 359.578125 669.949219 505.957031 Z M 669.949219 505.957031 " clip-rule="nonzero"/></clipPath><linearGradient x1="-0.00000119054" gradientTransform="matrix(0.525782, 0, 0, 0.525782, 139.961457, 240.961569)" y1="712.74103" x2="1007.999912" gradientUnits="userSpaceOnUse" y2="712.74103" id="c0f4d27d26"><stop stop-opacity="1" stop-color="rgb(94.898987%, 94.898987%, 94.898987%)" offset="0"/><stop stop-opacity="1" stop-color="rgb(94.7052%, 94.7052%, 94.7052%)" offset="0.015625"/><stop stop-opacity="1" stop-color="rgb(94.319153%, 94.319153%, 94.319153%)" offset="0.03125"/><stop stop-opacity="1" stop-color="rgb(93.933105%, 93.933105%, 93.933105%)" offset="0.046875"/><stop stop-opacity="1" stop-color="rgb(93.547058%, 93.547058%, 93.547058%)" offset="0.0625"/><stop stop-opacity="1" stop-color="rgb(93.162537%, 93.162537%, 93.162537%)" offset="0.078125"/><stop stop-opacity="1" stop-color="rgb(92.776489%, 92.776489%, 92.776489%)" offset="0.09375"/><stop stop-opacity="1" stop-color="rgb(92.390442%, 92.390442%, 92.390442%)" offset="0.109375"/><stop stop-opacity="1" stop-color="rgb(92.004395%, 92.004395%, 92.004395%)" offset="0.125"/><stop stop-opacity="1" stop-color="rgb(91.618347%, 91.618347%, 91.618347%)" offset="0.140625"/><stop stop-opacity="1" stop-color="rgb(91.2323%, 91.2323%, 91.2323%)" offset="0.15625"/><stop stop-opacity="1" stop-color="rgb(90.846252%, 90.846252%, 90.846252%)" offset="0.171875"/><stop stop-opacity="1" stop-color="rgb(90.460205%, 90.460205%, 90.460205%)" offset="0.1875"/><stop stop-opacity="1" stop-color="rgb(90.074158%, 90.074158%, 90.074158%)" offset="0.203125"/><stop stop-opacity="1" stop-color="rgb(89.68811%, 89.68811%, 89.68811%)" offset="0.21875"/><stop stop-opacity="1" stop-color="rgb(89.302063%, 89.302063%, 89.302063%)" offset="0.234375"/><stop stop-opacity="1" stop-color="rgb(88.916016%, 88.916016%, 88.916016%)" offset="0.25"/><stop stop-opacity="1" stop-color="rgb(88.529968%, 88.529968%, 88.529968%)" offset="0.265625"/><stop stop-opacity="1" stop-color="rgb(88.143921%, 88.143921%, 88.143921%)" offset="0.28125"/><stop stop-opacity="1" stop-color="rgb(87.759399%, 87.759399%, 87.759399%)" offset="0.296875"/><stop stop-opacity="1" stop-color="rgb(87.373352%, 87.373352%, 87.373352%)" offset="0.3125"/><stop stop-opacity="1" stop-color="rgb(86.987305%, 86.987305%, 86.987305%)" offset="0.328125"/><stop stop-opacity="1" stop-color="rgb(86.601257%, 86.601257%, 86.601257%)" offset="0.34375"/><stop stop-opacity="1" stop-color="rgb(86.21521%, 86.21521%, 86.21521%)" offset="0.359375"/><stop stop-opacity="1" stop-color="rgb(85.829163%, 85.829163%, 85.829163%)" offset="0.375"/><stop stop-opacity="1" stop-color="rgb(85.443115%, 85.443115%, 85.443115%)" offset="0.390625"/><stop stop-opacity="1" stop-color="rgb(85.057068%, 85.057068%, 85.057068%)" offset="0.40625"/><stop stop-opacity="1" stop-color="rgb(84.671021%, 84.671021%, 84.671021%)" offset="0.421875"/><stop stop-opacity="1" stop-color="rgb(84.284973%, 84.284973%, 84.284973%)" offset="0.4375"/><stop stop-opacity="1" stop-color="rgb(83.898926%, 83.898926%, 83.898926%)" offset="0.453125"/><stop stop-opacity="1" stop-color="rgb(83.512878%, 83.512878%, 83.512878%)" offset="0.46875"/><stop stop-opacity="1" stop-color="rgb(83.126831%, 83.126831%, 83.126831%)" offset="0.484375"/><stop stop-opacity="1" stop-color="rgb(82.740784%, 82.740784%, 82.740784%)" offset="0.5"/><stop stop-opacity="1" stop-color="rgb(82.356262%, 82.356262%, 82.356262%)" offset="0.515625"/><stop stop-opacity="1" stop-color="rgb(81.970215%, 81.970215%, 81.970215%)" offset="0.53125"/><stop stop-opacity="1" stop-color="rgb(81.584167%, 81.584167%, 81.584167%)" offset="0.546875"/><stop stop-opacity="1" stop-color="rgb(81.19812%, 81.19812%, 81.19812%)" offset="0.5625"/><stop stop-opacity="1" stop-color="rgb(80.812073%, 80.812073%, 80.812073%)" offset="0.578125"/><stop stop-opacity="1" stop-color="rgb(80.426025%, 80.426025%, 80.426025%)" offset="0.59375"/><stop stop-opacity="1" stop-color="rgb(80.039978%, 80.039978%, 80.039978%)" offset="0.609375"/><stop stop-opacity="1" stop-color="rgb(79.653931%, 79.653931%, 79.653931%)" offset="0.625"/><stop stop-opacity="1" stop-color="rgb(79.267883%, 79.267883%, 79.267883%)" offset="0.640625"/><stop stop-opacity="1" stop-color="rgb(78.881836%, 78.881836%, 78.881836%)" offset="0.65625"/><stop stop-opacity="1" stop-color="rgb(78.495789%, 78.495789%, 78.495789%)" offset="0.671875"/><stop stop-opacity="1" stop-color="rgb(78.109741%, 78.109741%, 78.109741%)" offset="0.6875"/><stop stop-opacity="1" stop-color="rgb(77.723694%, 77.723694%, 77.723694%)" offset="0.703125"/><stop stop-opacity="1" stop-color="rgb(77.337646%, 77.337646%, 77.337646%)" offset="0.71875"/><stop stop-opacity="1" stop-color="rgb(76.953125%, 76.953125%, 76.953125%)" offset="0.734375"/><stop stop-opacity="1" stop-color="rgb(76.567078%, 76.567078%, 76.567078%)" offset="0.75"/><stop stop-opacity="1" stop-color="rgb(76.18103%, 76.18103%, 76.18103%)" offset="0.765625"/><stop stop-opacity="1" stop-color="rgb(75.794983%, 75.794983%, 75.794983%)" offset="0.78125"/><stop stop-opacity="1" stop-color="rgb(75.408936%, 75.408936%, 75.408936%)" offset="0.796875"/><stop stop-opacity="1" stop-color="rgb(75.022888%, 75.022888%, 75.022888%)" offset="0.8125"/><stop stop-opacity="1" stop-color="rgb(74.636841%, 74.636841%, 74.636841%)" offset="0.828125"/><stop stop-opacity="1" stop-color="rgb(74.250793%, 74.250793%, 74.250793%)" offset="0.84375"/><stop stop-opacity="1" stop-color="rgb(73.864746%, 73.864746%, 73.864746%)" offset="0.859375"/><stop stop-opacity="1" stop-color="rgb(73.478699%, 73.478699%, 73.478699%)" offset="0.875"/><stop stop-opacity="1" stop-color="rgb(73.092651%, 73.092651%, 73.092651%)" offset="0.890625"/><stop stop-opacity="1" stop-color="rgb(72.706604%, 72.706604%, 72.706604%)" offset="0.90625"/><stop stop-opacity="1" stop-color="rgb(72.320557%, 72.320557%, 72.320557%)" offset="0.921875"/><stop stop-opacity="1" stop-color="rgb(71.934509%, 71.934509%, 71.934509%)" offset="0.9375"/><stop stop-opacity="1" stop-color="rgb(71.549988%, 71.549988%, 71.549988%)" offset="0.953125"/><stop stop-opacity="1" stop-color="rgb(71.16394%, 71.16394%, 71.16394%)" offset="0.96875"/><stop stop-opacity="1" stop-color="rgb(70.777893%, 70.777893%, 70.777893%)" offset="0.984375"/><stop stop-opacity="1" stop-color="rgb(70.391846%, 70.391846%, 70.391846%)" offset="1"/></linearGradient></defs><g clip-path="url(#4b7f729a6b)"><g clip-path="url(#87e478e041)"><path fill="url(#45167167d0)" d="M 139.960938 240.960938 L 139.960938 770.949219 L 669.949219 770.949219 L 669.949219 240.960938 Z M 139.960938 240.960938 " fill-rule="nonzero"/></g></g><g clip-path="url(#f133818d25)"><g clip-path="url(#2a2b32cc7d)"><path fill="url(#c0f4d27d26)" d="M 139.960938 359.578125 L 139.960938 770.949219 L 669.949219 770.949219 L 669.949219 359.578125 Z M 139.960938 359.578125 " fill-rule="nonzero"/></g></g><path fill="#ffffff" d="M 558.117188 649.496094 C 561.21875 646.761719 564.371094 643.761719 565.738281 639.820312 C 567.789062 633.984375 565.476562 627.515625 562.691406 621.941406 C 551.332031 599.441406 531.5625 581.246094 508.21875 571.730469 C 489.238281 564.003906 464.894531 563.054688 450.644531 577.832031 C 445.914062 582.71875 442.496094 589.082031 436.449219 592.238281 C 426.460938 597.390625 414.472656 591.289062 405.375 584.613281 C 369.992188 558.585938 342.964844 521.359375 329.136719 479.667969 C 327.769531 475.511719 326.507812 471.097656 327.191406 466.785156 C 329.03125 455.691406 341.863281 451.011719 351.0625 444.597656 C 365.835938 434.238281 373.355469 415.46875 372.832031 397.488281 C 372.304688 379.453125 364.628906 362.207031 354.113281 347.589844 C 346.699219 337.230469 337.183594 327.503906 324.984375 323.878906 C 321.988281 322.984375 318.78125 322.5625 315.625 322.617188 C 306.527344 322.71875 298.957031 327.820312 292.597656 334.8125 C 286.390625 341.703125 278.558594 348.640625 272.457031 355.949219 C 258.894531 372.089844 249.480469 391.703125 245.644531 412.417969 C 237.074219 458.742188 255.894531 505.957031 280.714844 546.019531 C 305.582031 586.085938 336.972656 622.257812 373.988281 651.441406 C 397.4375 669.894531 424.199219 685.929688 453.851562 689.03125 C 490.132812 692.820312 525.992188 676.570312 554.066406 653.015625 C 555.433594 651.808594 556.800781 650.652344 558.117188 649.496094 Z M 558.117188 649.496094 " fill-opacity="1" fill-rule="nonzero"/></svg>